<?xml version="1.0" encoding="utf-8"?>
<!-- Generator: Adobe Illustrator 16.0.4, SVG Export Plug-In . SVG Version: 6.00 Build 0)  -->
<!DOCTYPE svg PUBLIC "-//W3C//DTD SVG 1.1//EN" "http://www.w3.org/Graphics/SVG/1.1/DTD/svg11.dtd">
<svg version="1.1" id="Layer_1" xmlns="http://www.w3.org/2000/svg" xmlns:xlink="http://www.w3.org/1999/xlink" x="0px" y="0px"
	 width="225.833px" height="262.764px" viewBox="0 0 225.833 262.764" enable-background="new 0 0 225.833 262.764"
	 xml:space="preserve">
<path fill="#54C5F1" d="M85.476,262.764C38.344,262.764,0,224.111,0,176.602h35.781c0,27.779,22.293,50.381,49.695,50.381V262.764z"
	/>
<path fill="#54C5F1" d="M35.781,178.154H0c0-27.045,9.343-49.7,27.019-65.519c15.567-13.932,37.074-21.682,60.558-21.821
	l0.211,35.781C39.531,126.881,35.781,166.133,35.781,178.154z"/>
<path fill="#54C5F1" d="M84.979,262.764v-35.781c26.264,0,48.454-16.559,48.454-36.154h35.781
	C169.215,230.494,131.428,262.764,84.979,262.764z"/>
<rect x="133.806" y="26.749" transform="matrix(1 0.0045 -0.0045 1 0.4946 -0.6862)" fill="#54C5F1" width="35.782" height="164.161"/>
<rect x="86.657" y="90.845" fill="#54C5F1" width="121.507" height="35.781"/>
<path fill="#54C5F1" d="M203.693,262.658c-37.578,0-69.234-35.457-69.234-83.037h34.756c0,24.045,14.652,49.039,33.543,49.039
	L203.693,262.658z"/>
<path fill="#54C5F1" d="M169.959,25.646c0,10.02-8.014,18.141-17.891,18.141l0,0c-9.879,0-17.889-8.121-17.889-18.141v-7.505
	C134.18,8.123,142.189,0,152.068,0l0,0c9.877,0,17.891,8.123,17.891,18.141V25.646z"/>
<path fill="#54C5F1" d="M200.074,126.627c-10.012,0-18.133-8.025-18.129-17.914l0,0c0-9.892,8.117-17.914,18.129-17.914h7.506
	c10.014,0,18.131,8.022,18.131,17.914l0,0c0,9.889-8.117,17.914-18.131,17.914H200.074z"/>
<path fill="#54C5F1" d="M202.49,262.658c-9.117,0-16.514-7.604-16.508-16.977l0,0c0-9.373,7.391-16.975,16.508-16.975h6.834
	c9.115,0,16.51,7.602,16.51,16.975l0,0c0,9.373-7.395,16.977-16.51,16.977H202.49z"/>
<path fill="#54C5F1" d="M81.747,231.393c0,0,6.392,0.451,12.518-0.574L93.66,257.84c0,0-12.611,1.01-14.35-0.234L81.747,231.393z"/>
<g>
</g>
<g>
</g>
<g>
</g>
<g>
</g>
<g>
</g>
<g>
</g>
<g>
</g>
<g>
</g>
<g>
</g>
<g>
</g>
<g>
</g>
<g>
</g>
<g>
</g>
<g>
</g>
<g>
</g>
</svg>
